<svg id="Layer_1" data-name="Layer 1" xmlns="http://www.w3.org/2000/svg" viewBox="0 0 270 96"><defs><style>.cls-1,.cls-2{fill:#aeb536;}.cls-1{fill-rule:evenodd;}</style></defs><title>Super Gummy Logo-Curved</title><path class="cls-1" d="M74.76,65.84c-.47-3-.84-6-3.26-8.29a8.18,8.18,0,0,0-4.14-2.16,4.92,4.92,0,0,0-2.81.39c-.86.36-1,1.23-1.4,2a8.3,8.3,0,0,0-.38,5.38c0,.22.1.45.16.67a18.57,18.57,0,0,1,.82,4.8c0,.27.06.55.07.82a3.77,3.77,0,0,1-1.28,3.24c-1,.81-3,.78-3.59-.14a10.56,10.56,0,0,1-1.44-3.12c-.52-1.93-.91-3.89-1.26-5.86a6.36,6.36,0,0,0-2.48-4.19c-2.1-1.57-3.77-1.24-5.86-.06-1.17.65-1.5,2-2.13,3.05A6.57,6.57,0,0,0,45,66.1a28.1,28.1,0,0,0,2,9c1.38,3.43,3,6.65,6.25,8.81a13,13,0,0,0,5.48,2.29,16.49,16.49,0,0,0,5.47-.15A11.07,11.07,0,0,0,67,85.24a12.68,12.68,0,0,0,5.38-4.39,16.92,16.92,0,0,0,2.78-10A41.65,41.65,0,0,0,74.76,65.84Z"/><path class="cls-1" d="M87.14,48.63a15.61,15.61,0,0,0,8-1.2A11.71,11.71,0,0,0,100.89,42a15.57,15.57,0,0,0,2-8.72,10.87,10.87,0,0,0-.08-2.91,25.58,25.58,0,0,0-1.2-7.1,8,8,0,0,0-6.46-5.39,3.39,3.39,0,0,0-3.47,1.35,8.82,8.82,0,0,0-1.14,4.57,28.44,28.44,0,0,0,.6,3.56,13.85,13.85,0,0,1,.29,5.84,3,3,0,0,1-2.6,2.46A2.53,2.53,0,0,1,86,33.77a25.36,25.36,0,0,1-1.63-6.93A8.44,8.44,0,0,0,83,22.61a5.22,5.22,0,0,0-7.41-.94c-1,.87-1.33,2.11-2,3.18a5.85,5.85,0,0,0-.68,3.25,28,28,0,0,0,3.81,13.59A13.32,13.32,0,0,0,87.14,48.63Z"/><path class="cls-1" d="M56.16,39.7a4.43,4.43,0,0,1-5.32.07c-1-.86-1.74-2-2.8-2.76a5.14,5.14,0,0,0-4-1.4c-1.25.2-1.64.77-2.59,1.38s-1.49.71-2.06,1.56a7.15,7.15,0,0,0-.87,5.12,12.06,12.06,0,0,0,4.79,7.4c3.42,2.74,7.42,3.62,11.68,3.62A17.44,17.44,0,0,0,60.37,54a14.67,14.67,0,0,0,7.29-4.23,15.45,15.45,0,0,0,3.5-6.16,18.31,18.31,0,0,0,.43-9.24,12,12,0,0,0-2.23-4.81,21.64,21.64,0,0,0-10.92-7.09,19.48,19.48,0,0,1-3.7-1.34,5.06,5.06,0,0,1-2.82-4.33,2.71,2.71,0,0,1,2.31-2.93,1.93,1.93,0,0,1,1.21,0,4.83,4.83,0,0,1,2,1.35c1.33,1.64,2.77,3,5,3.17A3.71,3.71,0,0,0,66,16.65,6.92,6.92,0,0,0,66.17,10a12.52,12.52,0,0,0-3.11-4.08,12.45,12.45,0,0,0-6.67-3.34,16.22,16.22,0,0,0-11.18,2,11.29,11.29,0,0,0-4.27,4.32,2.94,2.94,0,0,0-.3.68,4.78,4.78,0,0,1-.23.42c-.08.11-.14.21-.2.31l-.09.2-.36.75c0,.14-.11.31-.19.5a6,6,0,0,1-.33.72s0,0,0,.06l0,.09c0,.07,0,.13-.07.19a.74.74,0,0,0,0,.14l-.06.17c0,.06,0,.12,0,.18a.93.93,0,0,0,0,.13c0,.11,0,.21-.07.32a.68.68,0,0,1,0,.14c0,.35,0,.7,0,1.06a14.8,14.8,0,0,0,1.09,6.17,17.9,17.9,0,0,0,6.2,7.39,34.31,34.31,0,0,0,7.55,4.12c1.21.49,2.5.85,3.26,2.17A3.79,3.79,0,0,1,56.16,39.7Z"/><path class="cls-1" d="M191.79,20a7.25,7.25,0,0,0-6.71-2.87,5.6,5.6,0,0,0-2.78.48c-2,.76-3.66,1.85-5.9,1.86-2.57,0-7.21-3.49-8.5.55a.61.61,0,0,0,0,.4l0,0a5.56,5.56,0,0,0-.19,1.95,33,33,0,0,1-.91,8.22A33.17,33.17,0,0,0,166,41.47a8.07,8.07,0,0,0,3.19,6,5,5,0,0,0,7.69-3,13.45,13.45,0,0,0-.12-5,27.44,27.44,0,0,1-.74-6.24,10.62,10.62,0,0,1,.75-4.41,5.12,5.12,0,0,1,7-3.13c1.45.61,2.81,1.5,4.43,1.65a4.19,4.19,0,0,0,4.05-1.45C193.7,23.94,193.1,21.73,191.79,20Z"/><path class="cls-1" d="M37.51,66.79a17.21,17.21,0,0,0-7.89-1.15,9.55,9.55,0,0,0-3.07.38,10.65,10.65,0,0,1-1.8.55l-.11,0h0a.77.77,0,0,0-.28.1,3.88,3.88,0,0,0-.63.35c-1.37.95-1.42,3.45-.07,4.14a6.44,6.44,0,0,0,3.28.93c1,0,1.48.47,1.4,1.28-.3,3.18-2.43,4.45-5.09,4.78-3.17.39-5.3-1.58-6.66-4.21s-1.29-5.15-1.08-7.78a19.25,19.25,0,0,1,3.73-10.11c1.93-2.62,4.29-3.51,7.33-2.59,1.26.39,2.4,1,2.54,2.55a7.36,7.36,0,0,0,2.77,5.12,4.5,4.5,0,0,0,7-1.33,8.19,8.19,0,0,0,.49-5.62,15.88,15.88,0,0,0-4.08-7.38,13.13,13.13,0,0,0-5.2-3.6,18.3,18.3,0,0,0-12.24-.37,19.05,19.05,0,0,0-8.45,5.26,4.18,4.18,0,0,0-.95,1.33,27.38,27.38,0,0,0-2.7,4.1l-.15.22a20.52,20.52,0,0,0-2.26,6.38,45.16,45.16,0,0,0-1.08,10,3,3,0,0,0,0,.48c.23,4.66.91,9.19,3.24,13.36a21.7,21.7,0,0,0,6.09,7,17.89,17.89,0,0,0,9,3.37,18.55,18.55,0,0,0,13-3.6,6.13,6.13,0,0,1,4.75-1.38,3.81,3.81,0,0,0,2.21-.48,5.73,5.73,0,0,0,2.7-3.48,16.58,16.58,0,0,0,1.11-5.92,17.57,17.57,0,0,0-.69-6.08A10.51,10.51,0,0,0,37.51,66.79Z"/><path class="cls-1" d="M117.76,72.79a9.52,9.52,0,0,1-2.46-3.35c-.67-1.58-1.17-3.23-1.79-4.84-.76-1.93-1.41-3.91-3.15-5.3a3.84,3.84,0,0,0-3.53-.74,12.54,12.54,0,0,0-4.93,3.16,2.42,2.42,0,0,1-2.21.85c-.79-.21-.85-1.06-1-1.75a12.32,12.32,0,0,0-4.06-6.93,8.21,8.21,0,0,0-7.05-1.83c-1.37.23-2.66.81-4,1.06a3,3,0,0,0-3,1.73.79.79,0,0,0,0,.2,15.55,15.55,0,0,0-.86,4c-.43,2.35-.72,4.73-1.24,7A28.25,28.25,0,0,0,77.49,73c.12,2.46.33,5.23,2.06,7.64a5.63,5.63,0,0,0,4,2.68,8.78,8.78,0,0,0,2.94-.13A4.47,4.47,0,0,0,90,80.52a10.25,10.25,0,0,0,.68-4.35c-.13-2.37-.33-4.74-.5-7.11a2.88,2.88,0,0,1,.91-2.53c.79-.7,1.23-.58,1.48.45a11.22,11.22,0,0,1,.09,4.32,35,35,0,0,0-.63,4.89c0,2.37.3,4.56,2.35,6.19a4.56,4.56,0,0,0,4.46.8,3.47,3.47,0,0,0,2.32-2.24,14,14,0,0,0,1-5.47,6.64,6.64,0,0,1,1.53-4.16,1.2,1.2,0,0,1,1.26-.39c.46.07.49.46.59.8a13.77,13.77,0,0,1,.22,4.25c0,3.15,1.53,5.31,4.07,7a5.23,5.23,0,0,0,5.73,0,7.67,7.67,0,0,0,3.1-3.28C120.05,77.17,119.8,74.67,117.76,72.79Z"/><path class="cls-1" d="M155.23,61.86c-.24-2-.51-3.9-.92-5.83a7,7,0,0,0-1.81-3.87,3.07,3.07,0,0,0-2.87-1,9.86,9.86,0,0,0-4.32,2.41c-.88.69-1.46,1.71-2.52,2.21s-1.72.26-1.84-1.07a11.57,11.57,0,0,0-.75-3.25,12.16,12.16,0,0,0-3.81-5.05A6.24,6.24,0,0,0,133,44.91a.6.6,0,0,0-.49-.26,5.82,5.82,0,0,0-2.26.31,5.55,5.55,0,0,0-1,.26.83.83,0,0,0-.93.47,5.63,5.63,0,0,0-2.39,3.79,1.42,1.42,0,0,0-.47.81c-.41,2.15-.92,4.28-1.24,6.45A63.62,63.62,0,0,1,123,63.63a30.16,30.16,0,0,0-1.14,10.22c.16,2.07,1.93,4.62,4.15,4.74a11.69,11.69,0,0,0,1.56.06c2.39-.15,4.15-.9,5.06-3.43a12.47,12.47,0,0,0,.49-5c-.11-2.05-.24-4.1-.28-6.16A2.78,2.78,0,0,1,134,61.53c.62-.44.86-.39,1,.35a10.77,10.77,0,0,1,.09,3.92,46.42,46.42,0,0,0-.74,7.43,5.89,5.89,0,0,0,2.57,5.31A4,4,0,0,0,143,76.4a27.39,27.39,0,0,0,.73-5.78,9.28,9.28,0,0,1,1.49-5.19A1,1,0,0,1,146.3,65c.46.06.42.44.47.75a20.61,20.61,0,0,1,.22,3.68A16.48,16.48,0,0,0,147,72c-.1,3.41,3.23,7.61,6.86,7.83a4,4,0,0,0,4-2.3,10.38,10.38,0,0,0-.53-9.12A19.68,19.68,0,0,1,155.23,61.86Z"/><path class="cls-1" d="M185.76,45.9a4.09,4.09,0,0,0-6.34,1.52,1.28,1.28,0,0,1-.29.4,6.66,6.66,0,0,0-1.66,2.87c-.75,2.3-.79,4.76-1.47,7.08a5.16,5.16,0,0,1-.94,1.8,1.85,1.85,0,0,1-2.26.34,4.53,4.53,0,0,1-1.19-1.24c-.82-1.45-1.67-2.89-2.48-4.35a16.85,16.85,0,0,0-5-6.18,5.66,5.66,0,0,0-5.9-.34.89.89,0,0,0-.38.39,5.5,5.5,0,0,0-1.76,2.8c-.06.14-.13.29-.2.42a.6.6,0,0,0-.05.53,4.09,4.09,0,0,0,.06,1.05,9.07,9.07,0,0,0,5.22,6.93,33,33,0,0,1,4.18,2.39,13.48,13.48,0,0,1,5.15,6.13c1.11,3-.55,6.79-4.31,6.81a8.18,8.18,0,0,0-3.4.43c-.19.09-.42.15-.52.32a5.73,5.73,0,0,0-2.06,2.64.72.72,0,0,0,0,.33,2.42,2.42,0,0,0,0,.54,8.57,8.57,0,0,0,3.16,5.71,8.38,8.38,0,0,0,5.6,2.07c.36,0,.72,0,1.07,0a8,8,0,0,0,7.1-4.77c1.5-3.34,2.22-6.93,3.28-10.41a47.38,47.38,0,0,1,4.75-10.51,37.38,37.38,0,0,0,3.29-6.76A7.81,7.81,0,0,0,185.76,45.9ZM161.92,78.33h0l-.06.1Zm-.29.34a.63.63,0,0,0,.21-.19C161.77,78.6,161.7,78.66,161.63,78.67Z"/><path class="cls-1" d="M142.3,45c4.66,2.28,9.37,2.91,14.18.42a7.11,7.11,0,0,0,3.39-3.22A1.29,1.29,0,0,0,160,41c-.46-1-1-1.9-2.26-2a12.93,12.93,0,0,0-2-.08c-3.24.15-6.47.23-9.34-1.71a2.25,2.25,0,0,1-1-1.13c-.18-.61.42-1.37,1.33-1.47a9.44,9.44,0,0,1,4,.2,33.22,33.22,0,0,0,6.89,1.49,4.89,4.89,0,0,0,5.07-2.5,7.47,7.47,0,0,0,.43-5.66,14.81,14.81,0,0,0-2-4.13,13.87,13.87,0,0,0-6.68-5.8,15.94,15.94,0,0,0-8-.9,9.36,9.36,0,0,0-3.16.83l-.56.21a3.81,3.81,0,0,0-1.07.57c-.47.34-1.39,1-1.86,1.3A11.69,11.69,0,0,0,136.35,24,16.28,16.28,0,0,0,134,32a11.91,11.91,0,0,0,1,5.53A16,16,0,0,0,142.3,45Zm4.08-17.51a5.14,5.14,0,0,1,5.9-1,6.76,6.76,0,0,1,1.7,1,2.23,2.23,0,0,1,.84,2.18A2.3,2.3,0,0,1,153,31.48c-.73.15-1.47.2-2.07.27a11.14,11.14,0,0,1-4.1-1A2.13,2.13,0,0,1,146.38,27.47Z"/><path class="cls-1" d="M120.07,46.13a9.19,9.19,0,0,1-.59-2.64c0-.93.41-1.36,1.33-1.35a20.79,20.79,0,0,0,2.62,0A8.51,8.51,0,0,0,128,40.35a12.21,12.21,0,0,0,3.79-7.18,17.66,17.66,0,0,0,.32-4.17A17.85,17.85,0,0,0,128,17.51a11.36,11.36,0,0,0-5.34-3.65,19.09,19.09,0,0,0-3.45-.65,18.41,18.41,0,0,0-6.11.48,39.18,39.18,0,0,0-4.48,1.59,7.23,7.23,0,0,0-1.28.46,7.53,7.53,0,0,0-1.71,1,3.08,3.08,0,0,0-1,1.57A11.29,11.29,0,0,0,104.7,20a18.76,18.76,0,0,0,.19,2.12,65.55,65.55,0,0,1,.65,8.75c0,3,.26,6,.26,8.94h0c0,1.85-.09,3.72,0,5.57a18.46,18.46,0,0,0,2,8,7.81,7.81,0,0,0,5.32,3.92c2.33.5,4.73.29,6.55-1.59a5.47,5.47,0,0,0,1.74-4.1A18.16,18.16,0,0,0,120.07,46.13Zm-4.63-19.41a7.36,7.36,0,0,1,.14-5.44,3,3,0,0,1,2.61-1.84,2.69,2.69,0,0,1,2.53,1.85,7.15,7.15,0,0,1,.6,2.78c0,1.65-.34,3.23-1.93,4.15A2.77,2.77,0,0,1,115.44,26.72Z"/><path class="cls-2" d="M192.82,13.76a.31.31,0,0,1,0,.1.14.14,0,0,1,0,.07s0,0,0,0h-.65v2s0,0,0,0l0,0-.08,0h-.26l-.08,0,0,0s0,0,0,0V14h-.65l0,0a.14.14,0,0,1,0-.07.31.31,0,0,1,0-.1.37.37,0,0,1,0-.11.14.14,0,0,1,0-.07l0,0h1.84s0,0,0,0a.14.14,0,0,1,0,.07A.37.37,0,0,1,192.82,13.76Zm3.4,2.2s0,0,0,0l0,0-.07,0h-.25l-.08,0s0,0,0,0,0,0,0,0V14h0L195,16s0,0-.07.05a.53.53,0,0,1-.19,0,.42.42,0,0,1-.17,0s-.06,0-.07-.05l-.71-2h0V16s0,0,0,0l0,0-.08,0h-.24l-.08,0s0,0,0,0a.05.05,0,0,1,0,0V13.73a.2.2,0,0,1,.06-.15.19.19,0,0,1,.14-.05H194l.11.05a.34.34,0,0,1,.08.09,1.16,1.16,0,0,1,.06.15l.55,1.5.58-1.5a.7.7,0,0,1,.13-.23.36.36,0,0,1,.24-.07H196a.16.16,0,0,1,.14.05.2.2,0,0,1,.06.15Z"/></svg>